<svg width="22" height="22" viewBox="0 0 22 22" fill="none" xmlns="http://www.w3.org/2000/svg">
<path fill-rule="evenodd" clip-rule="evenodd" d="M12.336 0.25H14.663C15.858 0.25 16.809 0.25 17.571 0.322C18.352 0.397 19.013 0.552 19.601 0.913C20.2068 1.28439 20.716 1.79396 21.087 2.4C21.447 2.988 21.603 3.649 21.677 4.43C21.75 5.192 21.75 6.143 21.75 7.338V8.153C21.75 9.003 21.75 9.68 21.712 10.229C21.674 10.79 21.594 11.272 21.407 11.723C21.181 12.269 20.8496 12.7652 20.4318 13.1832C20.014 13.6012 19.518 13.9327 18.972 14.159C18.592 14.316 18.189 14.398 17.731 14.443C17.725 14.583 17.719 14.715 17.711 14.841C17.67 15.437 17.585 15.945 17.388 16.419C16.9059 17.5825 15.9815 18.5069 14.818 18.989C14.221 19.237 13.563 19.309 12.735 19.336C12.289 19.35 12.005 19.36 11.788 19.386C11.584 19.411 11.507 19.444 11.465 19.469C11.419 19.496 11.355 19.546 11.245 19.699C11.125 19.864 10.989 20.092 10.775 20.455L10.515 20.893C9.838 22.037 8.162 22.037 7.485 20.893L7.225 20.455C7.011 20.092 6.875 19.864 6.755 19.699C6.645 19.546 6.581 19.496 6.535 19.469C6.493 19.444 6.416 19.411 6.212 19.386C5.89712 19.3568 5.5812 19.3401 5.265 19.336C4.437 19.309 3.779 19.236 3.182 18.989C2.0185 18.5069 1.09409 17.5825 0.612 16.419C0.415 15.945 0.33 15.437 0.29 14.841C0.25 14.257 0.25 13.537 0.25 12.628V11.762C0.25 10.486 0.25 9.474 0.327 8.664C0.406 7.834 0.571 7.138 0.95 6.519C1.34151 5.87958 1.87883 5.34192 2.518 4.95C3.137 4.57 3.833 4.406 4.663 4.327C4.873 4.307 5.098 4.292 5.338 4.281C5.418 3.561 5.578 2.947 5.913 2.399C6.28439 1.79321 6.79396 1.28398 7.4 0.913C7.988 0.553 8.649 0.397 9.43 0.323C10.192 0.25 11.142 0.25 12.336 0.25ZM6.853 4.251L7.761 4.25H10.239C11.515 4.25 12.527 4.25 13.337 4.327C14.167 4.406 14.863 4.571 15.482 4.95C16.1211 5.34164 16.6584 5.87894 17.05 6.518C17.43 7.137 17.594 7.833 17.673 8.663C17.75 9.473 17.75 10.485 17.75 11.761V12.93C17.9721 12.9065 18.19 12.8534 18.398 12.772C18.7621 12.6212 19.0929 12.4002 19.3716 12.1216C19.6502 11.8429 19.8712 11.5121 20.022 11.148C20.12 10.91 20.182 10.611 20.216 10.126C20.25 9.634 20.25 9.009 20.25 8.125V7.375C20.25 6.133 20.25 5.255 20.184 4.571C20.12 3.9 20 3.496 19.808 3.183C19.5607 2.77954 19.2215 2.4403 18.818 2.193C18.504 2 18.1 1.88 17.428 1.816C16.746 1.751 15.867 1.75 14.625 1.75H12.375C11.133 1.75 10.254 1.75 9.571 1.816C8.9 1.88 8.496 2 8.182 2.192C7.77854 2.4393 7.4393 2.77854 7.192 3.182C7.032 3.445 6.922 3.766 6.853 4.251ZM4.805 5.821C4.085 5.889 3.645 6.019 3.302 6.229C2.86468 6.49699 2.49699 6.86468 2.229 7.302C2.019 7.645 1.889 8.085 1.82 8.805C1.75 9.535 1.75 10.476 1.75 11.8V12.6C1.75 13.542 1.75 14.211 1.786 14.738C1.822 15.258 1.889 15.583 1.997 15.844C2.16044 16.2384 2.4 16.5968 2.70199 16.8986C3.00398 17.2004 3.36248 17.4398 3.757 17.603C4.09 17.741 4.521 17.81 5.313 17.835L5.344 17.836C5.75 17.849 6.102 17.861 6.394 17.896C6.704 17.934 7.009 18.006 7.298 18.176C7.583 18.346 7.789 18.569 7.968 18.816C8.135 19.046 8.306 19.335 8.501 19.663L8.776 20.128C8.79895 20.1666 8.83186 20.1983 8.87127 20.2197C8.91068 20.2412 8.95515 20.2516 9 20.25C9.04485 20.2516 9.08932 20.2412 9.12873 20.2197C9.16814 20.1983 9.20105 20.1666 9.224 20.128L9.499 19.663C9.693 19.335 9.865 19.045 10.031 18.816C10.2071 18.5581 10.4353 18.3401 10.701 18.176C10.991 18.006 11.296 17.934 11.606 17.896C11.955 17.8614 12.3053 17.8414 12.656 17.836H12.686C13.479 17.81 13.909 17.741 14.244 17.603C14.6384 17.4396 14.9968 17.2 15.2986 16.898C15.6004 16.596 15.8398 16.2375 16.003 15.843C16.111 15.583 16.178 15.257 16.213 14.738C16.25 14.211 16.25 13.542 16.25 12.6V11.8C16.25 10.476 16.25 9.536 16.18 8.805C16.111 8.085 15.981 7.645 15.771 7.302C15.503 6.86468 15.1353 6.49699 14.698 6.229C14.355 6.019 13.915 5.889 13.195 5.82C12.465 5.75 11.524 5.75 10.2 5.75H7.8C6.476 5.75 5.536 5.751 4.805 5.821Z" fill="#757575"/>
<path d="M6.5 12C6.5 12.2652 6.39464 12.5196 6.20711 12.7071C6.01957 12.8946 5.76522 13 5.5 13C5.23478 13 4.98043 12.8946 4.79289 12.7071C4.60536 12.5196 4.5 12.2652 4.5 12C4.5 11.7348 4.60536 11.4804 4.79289 11.2929C4.98043 11.1054 5.23478 11 5.5 11C5.76522 11 6.01957 11.1054 6.20711 11.2929C6.39464 11.4804 6.5 11.7348 6.5 12ZM10 12C10 12.2652 9.89464 12.5196 9.70711 12.7071C9.51957 12.8946 9.26522 13 9 13C8.73478 13 8.48043 12.8946 8.29289 12.7071C8.10536 12.5196 8 12.2652 8 12C8 11.7348 8.10536 11.4804 8.29289 11.2929C8.48043 11.1054 8.73478 11 9 11C9.26522 11 9.51957 11.1054 9.70711 11.2929C9.89464 11.4804 10 11.7348 10 12ZM13.5 12C13.5 12.2652 13.3946 12.5196 13.2071 12.7071C13.0196 12.8946 12.7652 13 12.5 13C12.2348 13 11.9804 12.8946 11.7929 12.7071C11.6054 12.5196 11.5 12.2652 11.5 12C11.5 11.7348 11.6054 11.4804 11.7929 11.2929C11.9804 11.1054 12.2348 11 12.5 11C12.7652 11 13.0196 11.1054 13.2071 11.2929C13.3946 11.4804 13.5 11.7348 13.5 12Z" fill="#757575"/>
</svg>
